<?xml version="1.0"?>
<svg xmlns="http://www.w3.org/2000/svg" xmlns:xlink="http://www.w3.org/1999/xlink" xmlns:svgjs="http://svgjs.com/svgjs" version="1.1" width="512" height="512" x="0" y="0" viewBox="0 0 512 512" style="enable-background:new 0 0 512 512" xml:space="preserve" class=""><g><g xmlns="http://www.w3.org/2000/svg"><path d="m356.986 212.603h-253.792c-8.284 0-15-6.716-15-15v-47.145c-17.481-17.7-27.62-40.82-27.395-63.051.208-20.53 8.836-38.609 24.95-52.282 34.216-29.031 97.379-35.125 144.342-35.125 46.962 0 110.125 6.094 144.34 35.125 16.115 13.673 24.743 31.752 24.951 52.283.225 22.229-9.913 45.351-27.396 63.05v47.145c0 8.284-6.715 15-15 15z" fill="#fff5f5" data-original="#fff5f5" style="" class=""/><path d="m374.431 35.125c-34.215-29.031-97.378-35.125-144.34-35.125v212.603h126.896c8.284 0 15-6.716 15-15v-47.145c17.482-17.699 27.62-40.82 27.396-63.05-.209-20.531-8.837-38.61-24.952-52.283z" fill="#705246" data-original="#f2e8e4" style="" class=""/><path d="m374.431 35.125c-34.215-29.031-97.378-35.125-144.34-35.125-46.963 0-110.126 6.094-144.341 35.125-16.114 13.673-24.742 31.752-24.95 52.282-.226 22.23 9.913 45.351 27.395 63.051v47.145c0 8.284 6.716 15 15 15h253.792c8.284 0 15-6.716 15-15v-47.145c17.482-17.699 27.62-40.82 27.396-63.05-.209-20.531-8.837-38.61-24.952-52.283zm-27.378 97.647c-3.222 2.848-5.066 6.94-5.066 11.239v38.591h-223.793v-38.591c0-4.299-1.845-8.392-5.065-11.239-14.142-12.5-22.49-29.346-22.331-45.062.119-11.729 4.951-21.725 14.362-29.71 21.279-18.056 65.647-28 124.931-28 59.282 0 103.65 9.944 124.931 28 9.411 7.985 14.243 17.981 14.361 29.712.159 15.716-8.189 32.56-22.33 45.06z" fill="#ea9a58" data-original="#ea9a58" style="" class=""/><path d="m374.431 35.125c-34.215-29.031-97.378-35.125-144.34-35.125v30c59.282 0 103.65 9.944 124.931 28 9.411 7.985 14.243 17.981 14.361 29.712.159 15.716-8.188 32.561-22.33 45.061-3.222 2.848-5.066 6.94-5.066 11.239v38.591h-111.896v30h126.896c8.284 0 15-6.716 15-15v-47.145c17.482-17.699 27.62-40.82 27.396-63.05-.209-20.531-8.837-38.61-24.952-52.283z" fill="#c67a45" data-original="#c67a45" style="" class=""/><path d="m402.241 512c-8.284 0-15-6.716-15-15v-28.356c0-8.284 6.716-15 15-15s15 6.716 15 15v28.356c0 8.284-6.716 15-15 15z" fill="#444444" data-original="#444444" style="" class=""/><path d="m57.94 512c-8.284 0-15-6.716-15-15v-28.356c0-8.284 6.716-15 15-15s15 6.716 15 15v28.356c0 8.284-6.715 15-15 15z" fill="#6d6d6d" data-original="#6d6d6d" style=""/><path d="m494.87 237.202c-8.284 0-15 6.716-15 15v7.825h-36.818c-8.284 0-15 6.716-15 15s6.716 15 15 15h36.818v7.825c0 8.284 6.716 15 15 15s15-6.716 15-15v-45.65c0-8.284-6.716-15-15-15z" fill="#444444" data-original="#444444" style="" class=""/><path d="m390.013 182.603h-319.844c-37.517 0-68.039 30.522-68.039 68.039v218.002c0 8.284 6.716 15 15 15h425.922c8.284 0 15-6.716 15-15v-218.002c0-37.517-30.523-68.039-68.039-68.039z" fill="#fff5f5" data-original="#fff5f5" style="" class=""/><path d="m390.013 182.603h-159.922v301.041h212.961c8.284 0 15-6.716 15-15v-218.002c0-37.517-30.523-68.039-68.039-68.039z" fill="#705246" data-original="#f2e8e4" style="" class=""/><path d="m458.052 250.642c0-37.517-30.522-68.039-68.039-68.039h-319.844c-37.517 0-68.039 30.522-68.039 68.039v155.82h455.922z" fill="#b1d5f1" data-original="#b1d5f1" style="" class=""/><path d="m458.052 250.642c0-37.517-30.522-68.039-68.039-68.039h-159.922v223.859h227.961z" fill="#8bb9ff" data-original="#8bb9ff" style="" class=""/></g></g></svg>
